# XSI Wavefront OBJ Export v3.0
# File Created: Wed Jan 18 21:09:46 2017
# XSI Version: 9.0.243.0
o cube
# Hierarchy (from self to top father)
g cube

#begin 26 vertices
v -0.250000 0.000000 -0.250000
v 0.250000 0.000000 -0.250000
v -0.250000 0.500000 -0.250000
v 0.250000 0.500000 -0.250000
v -0.250000 0.000000 0.250000
v 0.250000 0.000000 0.250000
v -0.250000 0.500000 0.250000
v 0.000000 0.250000 0.000000
v 0.000000 0.500000 -0.250000
v 0.000000 0.000000 -0.250000
v 0.000000 0.000000 0.250000
v 0.000000 0.500000 0.250000
v 0.250000 0.000000 0.000000
v -0.250000 0.000000 0.000000
v -0.250000 0.500000 0.000000
v 0.250000 0.500000 0.000000
v 0.000000 0.000000 0.000000
v 0.000000 0.500000 0.000000
v -0.250000 0.250000 -0.250000
v 0.250000 0.250000 -0.250000
v -0.250000 0.250000 0.250000
v 0.250000 0.250000 0.250000
v 0.000000 0.250000 -0.250000
v 0.000000 0.250000 0.250000
v -0.250000 0.250000 0.000000
v 0.250000 0.250000 0.000000
#end 26 vertices

#begin 96 normals
vn 0.000000 -0.000000 -1.000000
vn -0.000000 0.000000 -1.000000
vn 0.000000 0.000000 -1.000000
vn 0.000000 0.000000 -1.000000
vn -0.000000 -1.000000 0.000000
vn 0.000000 -1.000000 -0.000000
vn 0.000000 -1.000000 0.000000
vn 0.000000 -1.000000 0.000000
vn -1.000000 0.000000 -0.000000
vn -1.000000 -0.000000 0.000000
vn -1.000000 0.000000 0.000000
vn -1.000000 0.000000 0.000000
vn 1.000000 0.000000 0.000000
vn 1.000000 0.000000 0.000000
vn -0.000000 0.000000 1.000000
vn 1.000000 0.000000 -0.000000
vn 0.000000 1.000000 0.000000
vn 0.000000 1.000000 0.000000
vn -0.000000 0.000000 1.000000
vn -0.000000 1.000000 0.000000
vn 0.000000 0.000000 1.000000
vn 0.000000 0.000000 1.000000
vn -0.000000 0.000000 1.000000
vn -0.000000 0.000000 1.000000
vn 0.000000 0.000000 -1.000000
vn 0.000000 1.000000 0.000000
vn 0.000000 0.000000 -1.000000
vn 0.000000 -1.000000 0.000000
vn 0.000000 -1.000000 0.000000
vn 0.000000 0.000000 1.000000
vn 0.000000 1.000000 0.000000
vn -0.000000 0.000000 1.000000
vn 0.000000 0.000000 -1.000000
vn 0.000000 0.000000 -1.000000
vn 0.000000 -1.000000 0.000000
vn 0.000000 -1.000000 0.000000
vn -0.000000 0.000000 1.000000
vn 0.000000 1.000000 0.000000
vn 0.000000 0.000000 1.000000
vn 1.000000 -0.000000 0.000000
vn 0.000000 -1.000000 0.000000
vn 1.000000 0.000000 0.000000
vn 0.000000 -1.000000 0.000000
vn -1.000000 0.000000 0.000000
vn -1.000000 0.000000 0.000000
vn 0.000000 1.000000 0.000000
vn 1.000000 0.000000 0.000000
vn 1.000000 -0.000000 0.000000
vn 0.000000 -1.000000 0.000000
vn 0.000000 -1.000000 0.000000
vn 0.000000 1.000000 0.000000
vn 1.000000 -0.000000 0.000000
vn 0.000000 -1.000000 0.000000
vn 0.000000 -1.000000 0.000000
vn -1.000000 0.000000 0.000000
vn -1.000000 0.000000 0.000000
vn 1.000000 -0.000000 0.000000
vn 1.000000 0.000000 0.000000
vn 0.000000 1.000000 0.000000
vn 0.000000 1.000000 0.000000
vn 0.000000 -1.000000 0.000000
vn 0.000000 -1.000000 0.000000
vn -0.000000 1.000000 0.000000
vn 0.000000 1.000000 0.000000
vn 0.000000 0.000000 -1.000000
vn -1.000000 0.000000 0.000000
vn 0.000000 0.000000 -1.000000
vn 1.000000 0.000000 0.000000
vn -1.000000 0.000000 0.000000
vn 0.000000 0.000000 1.000000
vn 0.000000 1.000000 -0.000000
vn 0.000000 0.000000 1.000000
vn 0.000000 0.000000 -1.000000
vn 0.000000 0.000000 -1.000000
vn 0.000000 0.000000 1.000000
vn 0.000000 0.000000 1.000000
vn -1.000000 0.000000 0.000000
vn -1.000000 0.000000 0.000000
vn 1.000000 0.000000 0.000000
vn 0.000000 1.000000 -0.000000
vn 0.000000 0.000000 -1.000000
vn 0.000000 0.000000 -1.000000
vn -1.000000 0.000000 0.000000
vn -1.000000 0.000000 0.000000
vn 1.000000 0.000000 0.000000
vn 1.000000 0.000000 0.000000
vn 0.000000 0.000000 1.000000
vn 0.000000 0.000000 1.000000
vn 0.000000 0.000000 -1.000000
vn 0.000000 0.000000 -1.000000
vn 0.000000 1.000000 -0.000000
vn 0.000000 1.000000 -0.000000
vn -1.000000 0.000000 0.000000
vn -1.000000 0.000000 0.000000
vn 1.000000 0.000000 -0.000000
vn 1.000000 0.000000 0.000000
#end 96 vertex normals

#begin 24 faces
f 1//1 19//65 23//73 10//27 
f 1//5 10//28 17//49 14//43 
f 1//9 14//44 25//77 19//66 
f 2//13 20//68 26//79 13//42 
f 3//17 15//46 18//51 9//26 
f 5//21 11//30 24//75 21//70 
f 4//3 20//67 23//74 9//33 
f 2//6 13//41 17//50 10//35 
f 16//37 18//23 8//19 26//15 
f 6//22 22//72 24//76 11//39 
f 11//29 5//8 14//54 17//53 
f 5//10 21//69 25//78 14//55 
f 12//57 24//52 8//48 18//40 
f 7//18 12//31 18//60 15//59 
f 6//7 11//36 17//62 13//61 
f 4//20 9//38 18//64 16//63 
f 3//2 9//25 23//82 19//81 
f 15//45 3//12 19//84 25//83 
f 4//14 16//47 26//86 20//85 
f 12//32 7//24 21//88 24//87 
f 2//4 10//34 23//90 20//89 
f 22//92 26//91 8//80 24//71 
f 7//11 15//56 25//94 21//93 
f 6//16 13//58 26//96 22//95 
#end 24 faces
